<?xml version="1.0" encoding="UTF-8" standalone="no"?><!DOCTYPE svg PUBLIC "-//W3C//DTD SVG 1.1//EN" "http://www.w3.org/Graphics/SVG/1.1/DTD/svg11.dtd"><svg width="100%" height="100%" viewBox="0 0 2084 2084" version="1.1" xmlns="http://www.w3.org/2000/svg" xmlns:xlink="http://www.w3.org/1999/xlink" xml:space="preserve" xmlns:serif="http://www.serif.com/" style="fill-rule:evenodd;clip-rule:evenodd;stroke-linejoin:round;stroke-miterlimit:2;"><g id="Design-sans-titre--2-.png" serif:id="Design sans titre (2).png"><path d="M450.504,750.964c1.117,-54.269 1.376,-54.234 1.435,-54.773c1.225,-11.335 2.355,-18.03 16.677,-28.545c12.35,-9.068 36.023,-21.494 82.475,-44.509c124.172,-61.522 164.722,-73.081 247.401,-95.783c92.754,-25.468 169.758,-31.818 184.719,-33.052c49.065,-4.047 51.198,-5.392 63.613,-4.397c124.803,9.998 124.327,13.856 129.332,14.602c38.333,5.709 38.132,6.156 75.843,14.565c64.299,14.337 76.975,21.582 100.673,29.015c73.436,23.031 99.366,36.424 128.825,48.329c36.007,14.552 118.908,62.157 123.284,65.371c7.163,5.26 12.933,7.922 17.269,10.757c3.396,2.221 6.066,4.578 8.115,7.725c2.85,4.377 4.575,10.467 4.576,20.816c0.008,72.56 -0.237,104.169 -1.26,118.882c-0.849,12.217 -2.642,14.955 -4.563,17.342c-1.653,2.055 -5.831,5.083 -11.866,8.331c-11.971,6.442 -31.922,14.806 -49.813,21.089c-12.121,4.257 -23.317,7.55 -30.545,8.742c-4.122,0.68 -7.282,0.628 -9.151,0.141c-2.263,-0.59 -4.052,-1.388 -5.583,-2.749c-1.935,-1.719 -3.769,-4.584 -4.651,-10.894c-1.445,-10.345 -1.186,-33.947 -1.168,-90.05c0.002,-6.958 0.346,-12.264 0.258,-16.547c-0.064,-3.073 -0.252,-5.451 -1.484,-7.507c-1.874,-3.127 -5.716,-5.361 -12.57,-8.561c-21.299,-9.942 -43.055,-24.581 -67.548,-34.901c-15.159,-6.387 -130.737,-55.13 -193.902,-68.421c-27.085,-5.699 -26.825,-6.633 -29.193,-7.037c-73.301,-12.495 -108.161,-21.441 -190.319,-19.07c-98.154,2.832 -217.946,35.747 -227.085,39.034c-42.219,15.183 -42.455,14.408 -46.118,15.743c-102.778,37.443 -100.688,42.24 -156.995,68.415c-6.582,3.06 -11.559,5.22 -15.299,7.42c-2.741,1.613 -4.682,3.136 -5.899,5.45c-1.978,3.761 -2.34,9.042 -2.431,17.688c-1.96,187.459 2.765,364.046 3.611,395.691c0.894,33.416 3.561,33.046 9.272,65.92c6.082,35.014 15.645,58.59 19.258,75.564c2.884,13.552 2.043,23.508 -4.729,31.74c-9.469,11.511 -8.548,12.154 -18.625,23.174c-21.289,23.282 -31.376,36.93 -36.893,43.801c-3.109,3.873 -5.283,5.944 -6.869,6.84c-4.049,2.286 -7.677,2.595 -10.858,1.867c-3.074,-0.704 -5.821,-2.471 -8.134,-4.98c-4.908,-5.323 -7.719,-14.53 -8.778,-17.253c-35.419,-91.084 -45.037,-179.975 -49.487,-221.573c-7.51,-70.202 -3.725,-328.886 -4.817,-413.25c-0.001,-0.067 -0.001,-0.135 0.001,-0.202Z" style="fill:#000048;stroke:#fff;stroke-width:13.75px;"/><path d="M1543.308,1057.602c-0.291,0.108 -0.911,0.347 -1.314,0.578c-0.889,0.51 -1.831,1.195 -2.851,2.02c-6.401,5.184 -14.975,15.117 -27.196,27.387c-109.236,109.67 -205.39,194.237 -278.614,263.288c-26.449,24.942 -30.021,24.007 -33.215,47.158c-0.538,3.901 -3.95,27.907 -19.154,45.351c-21.247,24.376 -45.945,33.262 -68.688,31.656c-34.222,-2.416 -64.341,-28.886 -72.535,-64.122c-1.175,-5.052 -1.235,-9.102 -1.349,-12.755c-0.074,-2.376 -0.111,-4.524 -0.989,-6.755c-1.436,-3.651 -4.959,-7.303 -12.653,-12.682c-4.352,-3.042 -33.304,-23.289 -52.982,-39.984c-20.353,-17.268 -22.104,-14.787 -42.943,-31.426c-14.809,-11.824 -15.763,-10.479 -61.629,-46.927c-7.776,-6.179 -11.858,-8.476 -15.081,-8.489c-1.439,-0.006 -2.539,0.594 -3.744,1.131c-1.545,0.688 -3.153,1.414 -5.024,1.973c-4.182,1.25 -23.912,2.17 -25.998,2.254c-10.603,0.427 -14.112,2.418 -18.673,8.169c-3.83,4.829 -8.309,11.638 -16.536,21.095c-64.301,73.926 -64.089,74.046 -69.851,80.315c-34.03,37.022 -31.809,38.77 -65.379,76.076c-36.546,40.613 -35.873,41.089 -71.662,82.465c-30.041,34.73 -30.334,34.423 -32.791,37.566c-18.445,23.6 -17.763,24.001 -38.301,45.817c-2.954,3.138 -4.071,7.125 -4.61,11.617c-0.676,5.632 -0.4,11.981 -0.402,18.776c-0.005,15.255 -1.326,32.468 -14.165,49.338c-11.607,15.251 -22.56,23.514 -32.342,28.051c-14.724,6.829 -26.947,5.245 -35.489,5.31c-0.071,0.001 -0.141,-0 -0.212,-0.002c-19.946,-0.549 -29.651,-1.218 -40.204,-7.904c-59.271,-37.552 -44.471,-103.912 -19.949,-127.574c29.159,-28.136 52.936,-25.634 63.965,-27.034c2.331,-0.296 4.83,-1.636 7.558,-3.524c5.175,-3.582 10.795,-9.145 16.645,-15.678c15.549,-17.361 32.44,-41.372 46.149,-56.287c18.548,-20.18 17.692,-20.885 19.333,-22.609c30.454,-31.984 191.982,-223.904 210.583,-243.512c16.075,-16.945 17.275,-28.823 17.852,-41.304c0.448,-9.682 0.666,-19.659 5.416,-31.907c6.622,-17.073 26.712,-33.744 31.73,-36.791c45.718,-27.764 115.236,-11.752 127.281,58.823c0.86,5.037 1.618,7.929 2.881,9.936c0.77,1.223 1.749,2.014 2.945,2.933c1.863,1.432 4.135,2.993 6.983,5.395c20.31,17.126 21.006,15.991 42.459,31.656c55.163,40.28 54.478,41.133 59.282,44.62c31.712,23.015 47.111,35.797 56.619,42.907c8.022,5.999 10.999,7.39 17.879,7.662c45.913,1.821 54.485,-4.328 58.111,-7.295c20.202,-16.531 168.532,-156.695 183.077,-170.438c10.944,-10.34 96.298,-90.978 134.183,-131.97c1.308,-1.415 2.348,-2.677 3.109,-3.848c0.578,-0.889 1.038,-1.588 1.027,-2.317c-0.008,-0.512 -0.377,-0.916 -0.771,-1.415c-0.681,-0.864 -1.592,-1.733 -2.691,-2.677c-7.19,-6.173 -21.034,-14.285 -39.76,-30.579c-5.569,-4.846 -7.264,-9.43 -6.733,-13.242c0.396,-2.842 2,-5.791 5.576,-8.533c5.218,-4.001 16.272,-8.303 33.855,-14.054c57.668,-18.861 57.383,-19.527 62.393,-21.163c85.26,-27.836 84.314,-31.177 97.121,-32.452c4.559,-0.454 7.853,0.681 10.282,2.456c2.495,1.822 4.167,4.452 5.091,7.526c1.908,6.352 0.135,14.981 -0.057,16.246c-7.33,48.444 -13.861,107.101 -18.793,129.152c-3.511,15.701 -6.02,38.386 -9.149,52.521c-1.687,7.618 -3.989,13.08 -6.123,15.21c-2.442,2.438 -5.47,3.437 -9.039,3.036c-3.2,-0.359 -7.179,-2.183 -11.447,-5.3c-7.714,-5.633 -17.145,-15.707 -25.588,-24.032c-4.824,-4.757 -9.226,-8.937 -12.707,-10.888Z" style="fill:#000048;stroke:#fff;stroke-width:13.75px;"/><path d="M1513.023,1163.336c0.983,-16.001 1.258,-25.959 2.038,-32.812c1.393,-12.243 4.11,-16.192 13.181,-23.61c4.943,-4.042 8.891,-5.732 12.477,-5.927c3.88,-0.211 7.701,1.189 12.204,4.754c6.094,4.824 14.452,14.49 30.724,27.963c4.938,4.088 8.884,5.575 12.322,5.26c5.698,-0.521 9.581,-5.089 12.872,-7.51c3.798,-2.794 7.391,-3.767 10.486,-2.959c1.7,0.444 3.418,1.381 5.029,3.199l1.136,1.78c0.257,0.58 0.53,1.424 0.693,2.551c0.379,2.63 0.227,8.823 -0.51,17.548c-3.426,40.532 -18.472,139.911 -31.164,178.835c-37.63,115.402 -49.993,130.32 -71.011,171.923c-33.825,66.953 -93.394,141.843 -114.252,163.693c-114.303,119.734 -175.169,155.165 -185.143,162.091c-38.516,26.743 -39.042,25.843 -42.366,28.194c-29.407,20.803 -119.88,67.931 -133.775,71.056c-5.744,1.292 -15.203,-0.605 -25.784,-4.655c-21.876,-8.373 -49.553,-25.101 -55.626,-29.104c-3.32,-2.188 -59.409,-32.113 -66.996,-38.095c-12.302,-9.702 -12.644,-8.977 -24.184,-16.654c-8.429,-5.607 -46.207,-31.998 -58.723,-42.647c-19.063,-16.219 -91.884,-65.89 -186.509,-181.624c-9.609,-11.752 -35.512,-50.58 -37.946,-54.825c-2.369,-4.132 -3.449,-7.334 -3.323,-10.66c0.122,-3.221 1.387,-6.773 4.822,-11.6c3.391,-4.765 9.244,-11.384 18.375,-21.927c21.267,-24.556 29.914,-34.937 34.829,-39.518c4.656,-4.339 7.024,-4.894 10.754,-5.393c3.477,-0.465 6.08,-0.184 8.396,0.772c2.289,0.945 4.406,2.593 6.651,5.536c6.657,8.722 16.817,33.322 66.135,92.936c14.176,17.136 92.012,111.234 207.743,184.738c40.731,25.869 55.716,32.616 73.826,42.665c5.722,3.175 9.862,5.697 13.382,7.392c2.588,1.247 4.687,2.008 7.059,1.936c3.765,-0.114 7.966,-1.96 14.737,-5.433c12.158,-6.235 79.258,-40.639 144.046,-91.771c70.84,-55.908 82.052,-71.604 112.585,-102.652c43.688,-44.424 86.257,-104.593 102.034,-132.5c81.605,-144.348 94.631,-247.953 98.776,-312.945Z" style="fill:#33b1cc;stroke:#fff;stroke-width:13.75px;"/><path d="M975.502,967.592c0.872,-30.802 0.629,-30.77 0.718,-33.444c0.237,-7.125 2.075,-11.721 4.765,-14.813c2.732,-3.141 6.479,-4.971 11.371,-5.79c5.239,-0.877 12.148,-0.529 20.539,-0.587c0.028,-0 79.129,0.001 79.48,0.02c7.087,0.382 10.593,2.138 12.63,4.681c1.871,2.335 2.789,6.066 2.836,12.527c0.189,26.029 1.879,259.859 -1.334,325.365c-0.363,7.396 -0.257,14.758 -1.758,19.191c-1.248,3.687 -3.448,6.055 -6.336,7.195c-3.028,1.196 -7.806,1.13 -14.638,-3.116c-9.148,-5.685 -8.352,-6.608 -17.213,-12.778c-14.486,-10.087 -14.498,-9.929 -45.593,-34.176c-18.19,-14.184 -28.976,-20.515 -35.228,-25.477c-7.96,-6.316 -10.233,-10.85 -10.3,-21.939c-1.215,-199.321 0.24,-199.298 0.06,-216.627c-0.001,-0.078 -0,-0.156 0.002,-0.234Z" style="fill:#33b1cc;stroke:#fff;stroke-width:13.75px;"/><path d="M1146.235,1242.768c-0.857,-61.732 -0.857,-89.33 -0.857,-175.014c0,-100.699 -0.154,-131.25 0.678,-141.434c0.603,-7.381 2.119,-8.236 3.502,-9.591c1.182,-1.158 3.605,-2.377 6.702,-2.953c4.187,-0.778 9.984,-0.817 10.823,-0.82c7.343,-0.023 80.777,-0.251 91.79,0.009c5.815,0.137 9.344,1.366 11.564,3.004c2.816,2.078 4.283,4.941 4.659,8.988c0.302,3.246 -0.298,7.734 -0.298,13.631c-0.005,145.177 0.178,188.889 -0.522,203.727c-0.38,8.06 -1.17,9.362 -2.072,11.221c-0.506,1.043 -4.703,5.791 -11.499,12.507c-23.813,23.532 -81.198,77.306 -87.8,85.513c-0.48,0.597 -4.386,5.372 -8.555,8.07c-3.362,2.177 -6.975,2.964 -9.953,2.16c-3.079,-0.832 -6.468,-3.251 -7.859,-9.803c-0.335,-1.578 -0.359,-3.196 -0.262,-4.824c0.065,-1.082 0.311,-2.171 0.089,-3.22c-0.082,-0.385 -0.126,-0.777 -0.131,-1.17Z" style="fill:#33b1cc;stroke:#fff;stroke-width:13.75px;"/><path d="M1047.66,734.738c23.659,6.911 35.106,21.531 106.227,59.867c18.055,9.732 18.177,9.234 36.263,19.045c5.38,2.918 4.365,4.473 66.265,38.232c10.514,5.734 12.906,10.337 13.659,12.784c0.579,1.883 0.475,3.247 0.387,4.123c-0.074,0.737 -0.204,1.428 -0.426,2.088l-1.064,2.079c-0.902,1.252 -2.533,2.917 -6.883,3.827c-13.05,2.73 -74.498,2.432 -369.987,2.432c-42.047,-0 -42.008,0.26 -59.033,-1.976c-4.55,-0.598 -10.306,0.993 -13.994,0.704c-2.94,-0.231 -5.201,-1.276 -6.749,-2.832c-1.709,-1.718 -2.967,-4.232 -2.498,-8.19c0.162,-1.369 0.426,-2.498 0.983,-3.664c0.689,-1.442 1.875,-3.104 4.911,-5.275c4.486,-3.208 15.081,-9.013 40.758,-23.488c39.928,-22.51 39.3,-23.311 78.886,-46.187c12.135,-7.013 11.751,-7.43 24.026,-14.378c35.68,-20.196 39.22,-21.957 42.717,-23.701c7.809,-3.896 12.262,-7.159 16.201,-9.606c6.941,-4.313 12.469,-6.675 27.875,-6.12c0.5,0.018 0.995,0.098 1.476,0.238Z" style="fill:#33b1cc;stroke:#fff;stroke-width:13.75px;"/><path d="M808.836,988.616c-0.286,-58.021 -0.776,-58.014 -0.235,-63.027c0.706,-6.533 5.143,-10.188 10.904,-11.804c5.657,-1.586 12.718,-0.828 14.262,-0.828c55.45,0 78.959,-0.372 89.513,1.175c6.246,0.916 9.245,2.739 11.155,4.815c1.414,1.538 2.321,3.355 3.073,5.652c0.234,0.714 0.641,8.03 0.736,19.308c0.346,40.912 -0.156,139.202 -0.218,140.736c-1.547,38.165 1.165,58.639 -0.262,65.554c-0.514,2.493 -1.513,4.136 -2.558,5.196l-2.172,1.551l-2.58,0.711c-2.81,0.27 -5.034,-0.275 -6.862,-1.277c-2.521,-1.383 -4.454,-3.784 -5.691,-7.35c-1.109,-3.196 -1.694,-7.715 -2.615,-12.995c-1.156,-6.625 -2.982,-14.686 -8.37,-22.481c-23.884,-34.552 -54.338,-39.759 -72.785,-41.919c-6.251,-0.732 -11.279,-1.194 -14.533,-2.088c-2.41,-0.662 -4.182,-1.628 -5.386,-2.703c-1.31,-1.17 -3.059,-1.729 -3.909,-9.963c-0.766,-7.423 -1.255,-24.9 -1.468,-68.264Z" style="fill:#33b1cc;stroke:#fff;stroke-width:13.75px;"/><path d="M183.748,1517.772c-2.275,0.1 -25.678,4.423 -41.263,-18.189c-2.898,-4.205 -6.399,-13.951 -6.619,-24.705c-0.225,-10.993 2.922,-22.878 12.575,-31.09c7.874,-6.699 20.359,-11.149 39.776,-9.751c8.635,0.622 13.732,2.954 18.093,5.072c4.483,2.177 7.846,3.963 16.609,0.808c27.786,-10.003 150.822,-62.522 204.713,-83.829c14.266,-5.64 24.006,-9.073 26.399,-9.363c8.704,-1.054 16.459,5.777 15.792,13.513c-0.363,4.205 -3.272,9.723 -12.329,13.86c-8.293,3.788 -8.673,2.855 -105.114,44.036c-18.338,7.831 -69.452,27.581 -101.356,41.88c-8.018,3.594 -14.798,6.829 -19.47,9.429c-2.399,1.335 -4.155,2.334 -4.916,3.164c-0.932,1.017 -1.306,2.537 -1.782,4.242c-0.779,2.792 -1.445,6.013 -2.495,9.4c-3.523,11.358 -10.709,24.687 -37.417,31.351c-0.392,0.098 -0.792,0.156 -1.196,0.174Z" style="fill:#000048;stroke:#fff;stroke-width:13.75px;"/><path d="M1925.017,780.372c-0.221,7.185 -1.041,22.513 -11.873,32.493c-7.167,6.603 -18.819,11.252 -38.171,8.96c-9.739,-1.153 -15.716,-3.142 -20.796,-4.485c-6.156,-1.628 -10.663,-1.85 -21.415,3.096c-8.266,3.802 -99.611,42.347 -140.544,56.984c-7.43,2.657 -13.264,4.538 -16.749,5.35c-2.459,0.573 -4.23,0.634 -5.175,0.508c-2.77,-0.369 -5.751,-1.914 -8.096,-4.489c-3.092,-3.395 -5.067,-8.529 -4.012,-14.017c0.997,-5.19 4.773,-11.189 14.526,-15.555c21.313,-9.542 54.11,-22.614 58.847,-24.502c28.91,-11.522 29.045,-10.981 46.293,-19.092c10.17,-4.783 27.864,-9.411 41.944,-16.49c7.904,-3.974 14.755,-8.527 17.18,-14.971c3.369,-8.954 10.839,-26.74 28.068,-32.942c7.498,-2.699 16.889,-3.327 28.682,0.099c15.135,4.396 21.927,13.102 23.302,14.832c5.872,7.391 7.725,21.385 7.95,23.345c0.033,0.291 0.046,0.583 0.037,0.876Z" style="fill:#33b1cc;stroke:#fff;stroke-width:13.75px;"/><path d="M1670.37,1134.315c-3.75,-0.59 -5.796,-0.5 -7.288,-0.703c-2.867,-0.39 -4.797,-1.12 -7.748,-4.466c-4.009,-4.546 -4.578,-8.01 -3.956,-10.649c0.565,-2.397 2.558,-5.095 7.174,-7.922c0.771,-0.472 1.332,-1.143 5.455,-1.415c8.068,-0.532 43.456,-0.398 219.761,-0.398c27.071,0 26.961,-0.942 54.009,-1.568c7.724,-0.179 10.893,-4.422 13.093,-7.851c1.566,-2.441 2.891,-4.612 4.282,-6.006c26.038,-26.109 66.978,-9.447 71.692,19.336c7.688,46.943 -50.677,65.653 -75.102,32.194c-3.414,-4.677 -6.114,-6.55 -16.124,-7.539c-12.68,-1.253 -34.793,-1.003 -76.851,-1.003c-95.77,0 -95.675,-2.197 -103.99,-1.899c-4.701,0.169 -81.281,0.013 -83.606,-0.039c-0.269,-0.006 -0.537,-0.03 -0.802,-0.072Z" style="fill:#000048;stroke:#fff;stroke-width:13.75px;"/><path d="M1901.032,1513.148l-0.161,0.023c-2.803,0.395 -15.777,2.179 -28.612,-13.686c-5.203,-6.432 -6.789,-11.954 -8.173,-16.999c-1.419,-5.17 -2.656,-9.535 -11.843,-13.995c-39.54,-19.194 -54.667,-20.812 -113.496,-47.546c-16.272,-7.394 -64.086,-25.378 -93.742,-39.053c-9.281,-4.28 -16.843,-8.183 -21.314,-11.235c-2.654,-1.811 -4.421,-3.523 -5.343,-4.869c-6.63,-9.681 2.073,-20.292 11.925,-18.738c2.117,0.334 39.654,14.867 44.771,17.52c5.672,2.94 6.065,1.836 73.674,30.798c32.137,13.767 73.001,29.813 79.383,32.319c15.586,6.121 25.099,10.83 32.265,13.64c8.983,3.522 13.54,3.327 24.2,-1.674c17.9,-8.398 32.903,-5.339 43.491,2.726c17.412,13.263 22.502,40.893 9.273,57.232c-5.716,7.06 -14.804,12.249 -27.999,13.128c-2.764,0.184 -5.535,0.228 -8.299,0.407Z" style="fill:#33b1cc;stroke:#fff;stroke-width:13.75px;"/><path d="M139.048,1108.345c1.234,0.051 8.282,0.334 16.08,0.454c39.473,0.603 132.61,0.651 132.717,0.65c0.071,-0.001 0.141,-0.001 0.212,0.001c54.598,1.102 114.962,1.341 124.959,1.38c0.894,0.004 7.549,0.256 11.448,2.693c3.035,1.897 4.912,4.727 4.843,8.574c-0.049,2.711 -1.209,5.157 -3.657,7.138c-1.887,1.527 -4.916,2.842 -8.709,3.685c-10.879,2.418 -29.475,1.634 -33.174,1.633c-19.311,-0.004 -229.619,-0.056 -241.389,0.624c-3.511,0.203 -5.448,1.93 -7.214,3.998c-1.88,2.202 -3.598,4.728 -5.747,7.139c-1.18,1.323 -6.201,6.937 -13.608,11.341c-7.95,4.727 -18.493,7.973 -30.031,4.161c-14.864,-4.911 -23.568,-14.321 -27.511,-24.879c-9.264,-24.806 8.431,-56.564 38.122,-56.216c19.314,0.227 28.876,10.401 35.655,19.237c1.872,2.44 3.487,4.749 5.082,6.556c0.682,0.772 1.216,1.525 1.923,1.83Z" style="fill:#000048;stroke:#fff;stroke-width:13.75px;"/><path d="M1054.556,438.328c0.086,0.952 0.565,6.65 0.268,11.781c-0.275,4.752 -1.214,9.718 -3.103,13.225c-1.51,2.802 -3.607,4.844 -6.185,5.969c-2.566,1.12 -5.73,1.443 -9.621,0.098c-2.361,-0.816 -4.493,-2.542 -6.009,-5.715c-1.213,-2.538 -2.111,-6.498 -2.561,-12.047c-1.444,-17.804 0.917,-55.07 -0.182,-117.1c-0.833,-47.03 0.129,-71.158 -0.111,-85.045c-0.199,-11.468 -1.052,-14.582 -5.716,-19.593c-7.701,-8.273 -24.348,-19.369 -19.36,-46.705c1.808,-9.908 14.125,-28.348 34.724,-29.563c8.432,-0.497 18.35,1.839 29.465,9.256c5.92,3.95 10.614,11.39 12.788,20.157c3.141,12.666 1.019,27.857 -8.649,37.788c-3.444,3.538 -6.218,5.893 -8.429,7.9c-3.791,3.441 -5.064,5.595 -5.229,14.14c-1.404,72.708 -1.999,178.802 -2.092,195.454Z" style="fill:#33b1cc;stroke:#fff;stroke-width:13.75px;"/><path d="M1846.204,639.153c-0.297,3.282 0.765,24.933 -22.543,37.254c-12.654,6.689 -22.355,5.15 -32.214,3.441c-7.524,-1.304 -15.171,-2.754 -25.242,2.519c-33.11,17.334 -74.58,49.541 -93.052,55.341c-8.445,2.652 -13.87,0.291 -16.184,-4.311c-2.565,-5.1 -2.97,-9.55 -1.892,-13.661c1,-3.814 3.401,-7.449 7.269,-11.034c8.738,-8.099 26.295,-16.638 47.549,-32.516c8.368,-6.251 9.47,-4.358 17.624,-11.066c4.839,-3.981 10.411,-6.462 15.639,-9.156c5.729,-2.952 11.064,-6.158 12.702,-14.548c2.304,-11.799 1.565,-29.429 28.422,-43.389c7.975,-4.145 18.702,-5.13 28.981,-2.645c15.438,3.731 29.674,15.097 32.123,33.828c0.374,2.859 0.415,5.756 0.789,8.615c0.058,0.44 0.066,0.885 0.026,1.328Z" style="fill:#000048;stroke:#fff;stroke-width:13.75px;"/><path d="M287.994,680.154c-6.881,0.299 -30.001,4.841 -45.282,-18.332c-10.864,-16.476 -8.852,-47.329 12.568,-60.596c8.929,-5.53 21.314,-8.163 37.739,-4.949c2.381,0.466 12.038,1.943 24.015,18.51c5.851,8.094 6.926,14.497 7.229,20.081c0.288,5.309 -1.013,9.644 5.495,14.538c18.453,13.879 70.68,44.343 76.946,48c17.994,10.504 22.022,18.87 23.015,23.562c0.585,2.764 0.279,4.751 0.083,5.926c-0.983,5.878 -3.288,9.357 -6.046,11.271c-3.912,2.715 -9.922,2.831 -18.087,-1.031c-6.246,-2.955 -14.435,-8.211 -24.81,-14.759c-37.246,-23.51 -55.088,-35.909 -65.362,-41.751c-5.017,-2.853 -7.419,-4.024 -10.074,-3.602c-1.334,0.212 -1.23,0.227 -16.604,3.039c-0.272,0.05 -0.548,0.081 -0.824,0.093Z" style="fill:#33b1cc;stroke:#fff;stroke-width:13.75px;"/><path d="M159.519,778.963c0.706,-3.588 1.766,-25.714 25.772,-34.779c2.982,-1.126 20.314,-7.821 39.242,6.861c12.189,9.455 16.038,24.976 16.636,27.475c1.508,6.292 4.623,8.376 11.704,11.166c9.551,3.763 24.814,8.11 49.706,18.908c20.634,8.951 20.911,7.889 41.719,16.079c45.557,17.93 67.307,26.638 76.696,32.689c5.566,3.587 7.772,6.941 8.539,9.943c0.634,2.482 0.413,4.994 -0.608,7.74c-0.553,1.489 -1.409,3.286 -3.269,4.778c-1.572,1.262 -4.029,2.528 -8.402,2.419c-4.973,-0.123 -14.169,-2.363 -31.3,-10.287c-42.868,-19.828 -55.344,-22.349 -83.032,-33.205c-33.372,-13.085 -50.221,-21.261 -60.386,-25.266c-7.614,-3 -10.212,-3.246 -15.18,-0.551c-25.065,13.597 -40.909,10.91 -50.816,3.748c-14.899,-10.771 -16.945,-33.744 -17.121,-36.105c-0.04,-0.54 -0.007,-1.083 0.097,-1.614Z" style="fill:#000048;stroke:#fff;stroke-width:13.75px;"/><path d="M329.074,996.801c-4.567,-0.614 -7.905,-1.376 -10.657,-1.887c-1.742,-0.323 -3.134,-0.582 -4.543,-0.375c-2.253,0.331 -4.388,1.824 -7.983,4.784c-14.295,11.768 -27.962,15.335 -39.526,14.086c-18.022,-1.947 -31.407,-15.684 -35.51,-31.287c-7.67,-29.167 9.936,-41.234 11.841,-43.075c17.101,-16.524 52.169,-15.017 67.375,8.488c7.511,11.61 12.07,14.282 22.331,16.028c8.092,1.378 19.129,2.345 36.08,5.794c22.2,4.518 36.953,6.264 46.051,9.272c8.214,2.715 12.688,6.615 14.795,12.555c1.643,4.632 1.245,8.238 -0.129,10.976c-1.899,3.784 -6.264,6.599 -13.233,7.3c-17.007,1.71 -54.723,-8.625 -86.838,-12.653l-0.053,-0.007Z" style="fill:#33b1cc;stroke:#fff;stroke-width:13.75px;"/><path d="M1420.861,310.929c-3.653,11.428 -7.899,17.9 -12.243,21.935c-4.63,4.301 -9.489,6.019 -14.536,7.405c-4.621,1.269 -9.492,2.083 -14.167,6.865c-1.232,1.26 -1.795,2.138 -3.216,5.742c-2.893,7.341 -8.101,23.185 -21.723,62.285c-14.956,42.931 -22.958,66.742 -28.199,79.399c-2.553,6.166 -4.619,9.957 -6.399,12.177c-2.352,2.933 -4.711,4.049 -6.944,4.41c-2.154,0.348 -4.425,-0.05 -6.953,-1.257c-2.9,-1.384 -4.904,-3.24 -6.258,-5.465c-1.813,-2.979 -2.498,-6.806 -1.788,-11.704c1.197,-8.269 6.876,-20.913 13.548,-39.313c3.261,-8.994 37.855,-104.381 40.317,-112.591c0.716,-2.386 0.118,-4.62 -0.794,-6.93c-1.379,-3.493 -3.522,-7.064 -5.428,-11.021c-4.573,-9.491 -8.029,-20.791 -1.226,-36.672c9.371,-21.877 27.262,-22.848 30.301,-23.049c10.834,-0.718 27.084,-2.752 40.983,19.206c5.526,8.731 5.105,24.818 5.005,27.014c-0.024,0.531 -0.119,1.057 -0.28,1.564Z" style="fill:#33b1cc;stroke:#fff;stroke-width:13.75px;"/><path d="M1803.702,1321.43c-11.673,-1.634 -19.084,-4.35 -24.868,-9.585c-5.568,-5.04 -9.685,-12.641 -14.274,-24.937c-1.295,-3.47 -2.369,-5.624 -4.172,-6.931c-1.98,-1.436 -4.578,-1.901 -8.215,-2.608c-6.447,-1.253 -15.5,-2.627 -28.896,-6.697c-44.112,-13.402 -65.352,-17.069 -74.496,-20.716c-4.985,-1.988 -7.444,-4.404 -8.682,-6.988c-1.267,-2.646 -1.439,-5.901 -0.205,-10.37c0.728,-2.634 2.051,-4.522 3.743,-5.891c2.18,-1.765 5.166,-2.729 8.998,-2.592c8.335,0.297 23.15,7.142 40.217,10.007c22.425,3.765 51.452,13.58 66.746,16.193c11.516,1.967 16.94,-2.551 22.478,-6.787c7.836,-5.994 15.789,-11.721 32.399,-8.455c37.484,7.372 42.92,43.679 31.716,64.102c-13.873,25.289 -41.195,22.299 -41.396,22.308c-0.366,0.016 -0.732,-0.002 -1.094,-0.053Z" style="fill:#33b1cc;stroke:#fff;stroke-width:13.75px;"/><path d="M1681.832,1647.304l0.732,-0.262l2.276,-0.078l-1.691,-0.025c15.348,-1.939 15.235,-2.491 16.569,-2.633c17.773,-1.886 34.554,11.251 39.659,20.23c9.376,16.493 5.027,34.828 -5.789,47.323c-10.934,12.631 -28.312,19.03 -44.216,12.186c-12.05,-5.185 -18.617,-11.321 -22.404,-17.678c-3.824,-6.419 -4.839,-13.203 -5.226,-20.042c-0.394,-6.951 0.155,-13.975 -3.337,-20.288c-1.004,-1.815 -5.25,-5.901 -11.318,-11.613c-27.062,-25.474 -89.036,-77.635 -103.856,-91.85c-0.688,-0.66 -5.313,-5.207 -7.433,-9.987c-2.289,-5.161 -2.022,-10.417 2.54,-14.278c1.343,-1.137 2.844,-1.965 4.638,-2.378c2.167,-0.499 4.965,-0.459 8.808,1.303c3.914,1.795 9.76,5.898 18.854,14.113c76.775,69.359 77.315,68.564 83.759,74.825c15.271,14.837 25.635,20.25 27.435,21.13Zm-1.853,1.057c-0.535,0.429 -0.769,0.772 -0.819,0.835l0.819,-0.835Z" style="fill:#33b1cc;stroke:#fff;stroke-width:13.75px;"/><path d="M663.235,295.605c3.704,-13.563 1.981,-14.913 12.772,-23.863c1.87,-1.551 12.702,-10.544 29.185,-8.406c37.34,4.843 43.382,44.189 28.581,65.637c-3.531,5.117 -3.312,9.562 -1.331,16.607c1.702,6.052 4.612,13.608 8.205,23.944c24.196,69.593 40.21,106.014 42.278,121.964c0.835,6.438 -0.504,10.627 -2.749,13.166c-1.885,2.131 -4.563,3.527 -8.322,3.794c-5.481,0.389 -9.797,-2.698 -12.852,-8.233c-2.711,-4.912 -4.397,-12.17 -6.597,-17.064c-2.953,-6.569 -10.805,-26.63 -45.054,-125.975c-1.981,-5.747 -4.129,-9.099 -6.671,-11.116c-2.543,-2.018 -5.362,-2.684 -8.23,-3.517c-3.597,-1.045 -7.284,-2.193 -10.996,-4.507c-22.641,-14.114 -18.812,-33.396 -18.427,-41.141c0.022,-0.436 0.091,-0.869 0.206,-1.291Z" style="fill:#000048;stroke:#fff;stroke-width:13.75px;"/><path d="M426.072,405.769c18.067,1.743 27.637,7.535 32.931,14.691c5.329,7.203 6.44,16.201 6.539,25.442c0.055,5.114 -0.169,10.289 0.301,15.106c0.374,3.837 1.15,7.435 3.35,10.368c2.017,2.689 56.204,65.665 61.106,71.363c17.484,20.326 25.502,28.961 28.224,33.955c1.666,3.057 1.997,5.445 1.736,7.604c-0.243,2.014 -1.079,3.947 -2.613,6.163c-1.89,2.73 -4.116,4.424 -6.633,5.211c-2.393,0.748 -5.194,0.76 -8.57,-0.615c-3.11,-1.267 -7.125,-4.021 -12.304,-8.888c-7.139,-6.71 -17.021,-17.783 -31.099,-34.631c-17.654,-21.127 -33.246,-41.639 -45.547,-54.66c-3.823,-4.046 -7.287,-7.335 -10.382,-9.594c-2.031,-1.482 -3.66,-2.618 -5.157,-2.617c-9.49,0.01 -27.03,5.941 -43.247,-17.094c-2.897,-4.116 -6.179,-12.139 -6.982,-21.098c-0.827,-9.22 0.956,-19.318 7.722,-27.26c5.62,-6.597 14.789,-11.892 29.41,-13.439c0.404,-0.043 0.811,-0.045 1.215,-0.006Z" style="fill:#33b1cc;stroke:#fff;stroke-width:13.75px;"/><path d="M1650.152,485.212c-7.391,0.436 -11.218,1.762 -17.819,8.308c-8.143,8.075 -19.759,22.793 -43.038,49.807c-3.468,4.024 -42.236,48.787 -43.784,49.919c-5.346,3.908 -12.251,3.093 -17.292,0.173c-3.646,-2.112 -6.094,-5.289 -6.844,-7.85l-0.319,-1.921c-0.035,-0.723 0.019,-1.522 0.194,-2.39c0.365,-1.807 1.425,-4.24 3.219,-7.018c7.368,-11.41 28.954,-32.363 36.219,-41.116c29.52,-35.564 30.622,-34.499 33.179,-37.59c8.595,-10.391 14.119,-16.531 17.68,-20.823c4.071,-4.908 4.932,-6.576 5.116,-11.329c0.598,-15.444 -1.664,-15.555 1.557,-30.693c0.096,-0.451 0.244,-0.89 0.44,-1.308c1.071,-2.283 9.098,-18.459 21.582,-22.981c36.488,-13.217 65.48,25.063 51.646,53.02c-12.741,25.747 -36.718,24.332 -41.451,23.823l-0.282,-0.032Z" style="fill:#33b1cc;stroke:#fff;stroke-width:13.75px;"/><path d="M846.338,362.799c0.619,-4.844 0.832,-17.468 11.937,-28.784c7.745,-7.891 18.028,-12.496 24.762,-13.4c14.955,-2.006 26.712,1.791 35.23,8.507c20.085,15.836 21.939,48.621 4.504,65.388c-3.761,3.617 -5.795,6.288 -6.494,8.994c-0.665,2.575 -0.054,5.034 0.683,8.071c0.89,3.666 2.107,7.917 2.997,13.338c3.68,22.401 3.641,34.027 2.115,40.106c-1.226,4.881 -3.434,7.363 -5.702,8.857c-2.197,1.447 -4.675,1.957 -7.205,2.168c-7.055,0.586 -12.011,-2.435 -15.551,-8.002c-2.62,-4.121 -4.367,-9.991 -5.589,-16.726c-1.883,-10.38 -2.633,-23.047 -5.314,-33.147c-1.393,-5.249 -3.108,-9.797 -6.514,-12.152c-15.563,-10.761 -21.995,-16.874 -25.431,-23.898c-2.331,-4.764 -3.308,-10.03 -4.416,-17.685c-0.078,-0.541 -0.083,-1.089 -0.013,-1.631Z" style="fill:#000048;stroke:#fff;stroke-width:13.75px;"/><path d="M265.605,1317.348c-9.503,-2.968 -9.605,-2.608 -13.05,-4.835c-19.789,-12.791 -21.482,-36.453 -13.356,-53.602c5.658,-11.941 16.027,-20.443 27.779,-20.844c23.454,-0.8 25.911,2.411 35.829,9.721c4.651,3.428 7.739,5.112 10.627,5.42c2.816,0.3 5.288,-0.72 8.611,-1.865c3.892,-1.34 8.601,-2.995 15.078,-4.297c31.492,-6.33 30.742,-9.049 50.103,-12.417c20.56,-3.576 32.769,-8.562 40.444,-9.596c5.198,-0.7 9.008,0.147 12.052,2.422c5.005,3.739 6.124,7.796 5.556,11.317c-0.346,2.148 -1.428,4.346 -3.44,6.404c-1.89,1.933 -4.804,3.879 -8.548,5.672c-19.473,9.322 -65.177,16.223 -72.443,18.733c-11.878,4.103 -23.788,6.172 -32.673,8.387c-4.486,1.118 -8.09,1.944 -9.848,3.671c-5.348,5.253 -6.819,11.647 -9.341,17.176c-2.089,4.58 -4.692,8.719 -8.986,12.013c-5.919,4.54 -15.424,7.66 -32.895,6.786c-0.509,-0.025 -1.012,-0.115 -1.498,-0.267Z" style="fill:#33b1cc;stroke:#fff;stroke-width:13.75px;"/><path d="M1849.869,973.024c-0.324,1.905 -2.947,15.727 -9.014,22.414c-9.55,10.527 -19.394,14.156 -27.9,14.764c-12.803,0.916 -22.789,-5.278 -24.964,-6.643c-9.384,-5.892 -12.959,-9.853 -18.358,-11.109c-3.332,-0.775 -7.345,-0.347 -14.08,0.996c-7.046,1.405 -81.156,16.117 -88.295,16.419c-12.957,0.549 -18.25,-6.509 -18.305,-12.715c-0.05,-5.643 4.717,-13.195 16.115,-16.198c4.975,-1.311 5.039,-0.821 63.225,-11.777c13.789,-2.597 22.706,-3.58 28.958,-4.888c3.522,-0.737 5.98,-1.452 7.951,-3.071c2.097,-1.722 3.607,-4.33 5.544,-8.292c21.034,-43.018 76.531,-22.827 79.131,14.25c0.103,1.468 -0.042,2.947 0.061,4.416c0.034,0.479 0.01,0.961 -0.071,1.435Z" style="fill:#000048;stroke:#fff;stroke-width:13.75px;"/><path d="M1195.781,435.492l-0.001,0.008c-0.255,2.559 -1.518,14.605 -4.002,23.545c-1.397,5.028 -3.377,9.15 -5.422,11.219c-0.742,0.75 -4.426,3.504 -8.616,4.273c-3.524,0.647 -7.241,0.052 -10.296,-2.763c-3.195,-2.944 -6.387,-9.937 -4.302,-25.372c1.741,-12.889 4.391,-21.716 5.93,-28.997c1.905,-9.011 1.644,-15.137 -6.33,-25.433c-21.561,-27.839 -4.16,-63.143 21.986,-69.221c11.286,-2.624 24.338,-0.07 36.667,11.092c20.758,18.793 15.722,50.398 -10.431,66.607c-2.253,1.396 -3.986,2.231 -5.406,2.925c-1.722,0.841 -2.464,1.374 -3.73,4.292c-3.742,8.627 -2.584,8.925 -6.047,27.826Z" style="fill:#000048;stroke:#fff;stroke-width:13.75px;"/><path d="M1471.754,1712.937c0.912,-8.805 1.51,-8.535 3.481,-17.007c0.856,-3.679 -1.027,-7.639 -3.432,-11.679c-4.85,-8.148 -12.57,-16.171 -16.835,-22.162c-2.76,-3.878 -3.236,-7.394 -2.823,-10.32c0.629,-4.45 3.634,-7.763 5.896,-9.399c1.431,-1.035 2.712,-1.5 3.317,-1.649c5.029,-1.241 9.279,0.451 12.589,3.309c3.448,2.978 5.628,7.375 6.191,8.272c8.544,13.634 13.826,19.323 19.14,21.543c5.516,2.304 10.741,1.112 18.339,2.135c21.335,2.871 31.604,19.937 33.442,36.311c1.262,11.239 -1.657,21.978 -7.009,27.77c-15.165,16.412 -25.397,17.496 -35.608,16.935c-11.649,-0.639 -19.522,-4.497 -24.931,-9.513c-12.258,-11.37 -11.625,-29.59 -11.785,-33.687c-0.011,-0.287 -0.002,-0.574 0.028,-0.859Z" style="fill:#000048;stroke:#fff;stroke-width:13.75px;"/><path d="M1126.595,1429.518c-7.471,0.947 -13.852,1.998 -20.21,-0.11c-6.47,-2.145 -13.255,-7.455 -20.771,-20.495c-17.12,-29.705 15.534,-68.357 50.851,-50.729c6.571,3.28 13.235,10.763 16.915,20.038c3.666,9.237 4.391,20.119 -0.292,29.97c-3.906,8.217 -11.614,15.888 -25.12,20.987c-0.443,0.167 -0.904,0.282 -1.373,0.341Z" style="fill:#fefefe;stroke:#fff;stroke-width:13.75px;"/><path d="M454.103,1643.329c-0.016,0.163 1.401,28.399 -27.411,34.516c-15.97,3.39 -33.358,-3.084 -41.965,-15.916c-5.827,-8.687 -7.886,-20.305 -2.62,-33.932c8.054,-20.841 30.406,-29.789 48.15,-22.56c11.538,4.701 21.563,16.264 23.837,36.64c0.046,0.416 0.049,0.836 0.009,1.253Z" style="fill:#fff;stroke:#fff;stroke-width:13.75px;"/><path d="M858.627,1177.082c-3.024,16.88 -10.739,27.098 -19.701,32.424c-21.829,12.972 -52.444,-2.849 -54.001,-28.804c-0.285,-4.748 -1.602,-11.993 1.808,-20.11c2.315,-5.509 6.765,-11.51 15.474,-17.286c24.212,-16.057 53.246,4.2 56.095,27.685c0.173,1.428 0.202,2.871 0.375,4.299c0.072,0.597 0.055,1.201 -0.051,1.792Z" style="fill:#fff;stroke:#fff;stroke-width:13.75px;"/></g></svg>